# xmcd
#
# Track frame offsets:
#	150
#	22217
#	37672
#	52675
#	64820
#	76937
#	91235
#	101827
#	113295
#	121882
#	134380
#	144932
#	154000
#	166920
#
# Disc length: 2364 seconds
# Revision: 6
# Processed by: cddbd v1.5.2PL0 Copyright (c) Steve Scherf et al.
# Submitted via: dBpowerAMP V12.0
#
DISCID=a2093a0e
DTITLE=Staple Singers, The - Gold
DYEAR=1995
DGENRE=Staples
TTITLE0=Respect Yourself
TTITLE1=Let's Do It Again
TTITLE2=Touch a Hand, Make a Friend
TTITLE3=Swing Down Chariott
TTITLE4=Will the Circle Be Unbroken
TTITLE5=Calling Me
TTITLE6=Don't Knock
TTITLE7=God's Wonderful Love
TTITLE8=Going Away
TTITLE9=I Had a Dream
TTITLE10=I Know I've Got Religion
TTITLE11=This May Be the Last Time
TTITLE12=Uncloudy Day
TTITLE13=Don't Drive Away
EXTD=
EXTT0=
EXTT1=
EXTT2=
EXTT3=
EXTT4=
EXTT5=
EXTT6=
EXTT7=
EXTT8=
EXTT9=
EXTT10=
EXTT11=
EXTT12=
EXTT13=
PLAYORDER=
